<svg id="Layer_3" data-name="Layer 3" xmlns="http://www.w3.org/2000/svg" viewBox="0 0 50 50"><defs><style>.cls-1{fill:#010101;}</style></defs><title>Artboard 1ecovoix</title><path class="cls-1" d="M24.45,26.07a24.4,24.4,0,0,1,4.12-14.84A23.61,23.61,0,0,1,38.46,3,22.83,22.83,0,0,1,50,1.34a25.34,25.34,0,0,1-1.65,11.54,21.22,21.22,0,0,1-8.24,10.71c-6.75,4.31-14,2.85-15.66,2.48"/><path class="cls-1" d="M25.55,26.07a24.4,24.4,0,0,0-4.12-14.84A23.61,23.61,0,0,0,11.54,3,22.83,22.83,0,0,0,0,1.34,25.34,25.34,0,0,0,1.65,12.88,21.22,21.22,0,0,0,9.89,23.59c6.75,4.31,14,2.85,15.66,2.48"/><path class="cls-1" d="M24.45,23.09a24.36,24.36,0,0,0,4.12,14.83,23.67,23.67,0,0,0,9.89,8.25A22.68,22.68,0,0,0,50,47.81a25.3,25.3,0,0,0-1.65-11.53,21.28,21.28,0,0,0-8.24-10.72c-6.75-4.31-14-2.85-15.66-2.47"/><path class="cls-1" d="M25.55,23.09a24.36,24.36,0,0,1-4.12,14.83,23.67,23.67,0,0,1-9.89,8.25A22.68,22.68,0,0,1,0,47.81,25.3,25.3,0,0,1,1.65,36.28,21.28,21.28,0,0,1,9.89,25.56c6.75-4.31,14-2.85,15.66-2.47"/></svg>